<svg width="24" height="24" viewBox="0 0 24 24" fill="none" xmlns="http://www.w3.org/2000/svg">
<rect x="2" y="13" width="9" height="9" rx="2" fill="#8580EC"/>
<path d="M9 10V11H4V10H9ZM10 9V4C10 3.44772 9.55228 3 9 3H4C3.44772 3 3 3.44772 3 4V9C3 9.55228 3.44772 10 4 10V11L3.7959 10.9893C2.85435 10.8938 2.1062 10.1457 2.01074 9.2041L2 9V4C2 2.89543 2.89543 2 4 2H9C10.1046 2 11 2.89543 11 4V9C11 10.0357 10.2128 10.887 9.2041 10.9893L9 11V10C9.55228 10 10 9.55228 10 9Z" fill="#8580EC"/>
<path d="M20 21V22H15V21H20ZM21 20V15C21 14.4477 20.5523 14 20 14H15C14.4477 14 14 14.4477 14 15V20C14 20.5523 14.4477 21 15 21V22L14.7959 21.9893C13.8543 21.8938 13.1062 21.1457 13.0107 20.2041L13 20V15C13 13.8954 13.8954 13 15 13H20C21.1046 13 22 13.8954 22 15V20C22 21.0357 21.2128 21.887 20.2041 21.9893L20 22V21C20.5523 21 21 20.5523 21 20Z" fill="#5850EC"/>
<rect x="13" y="2" width="9" height="9" rx="2" fill="#8580EC"/>
</svg>
